<svg width="572" height="132" viewBox="0 0 572 132" fill="none" xmlns="http://www.w3.org/2000/svg">
<circle cx="50" cy="66" r="50" fill="#03A84E"/>
<circle cx="168" cy="66" r="50" fill="#03A84E"/>
<circle cx="286" cy="66" r="50" fill="#03A84E"/>
<circle cx="404" cy="66" r="50" fill="#03A84E"/>
<circle cx="522" cy="66" r="50" fill="#03A84E"/>
<path d="M50 30L58.307 54.5299H85.1891L63.441 69.6902L71.7481 94.2201L50 79.0598L28.2519 94.2201L36.559 69.6902L14.8109 54.5299H41.693L50 30Z" fill="#EAEAEA"/>
<path d="M168 30L176.307 54.5299H203.189L181.441 69.6902L189.748 94.2201L168 79.0598L146.252 94.2201L154.559 69.6902L132.811 54.5299H159.693L168 30Z" fill="#EAEAEA"/>
<path d="M286 30L294.307 54.5299H321.189L299.441 69.6902L307.748 94.2201L286 79.0598L264.252 94.2201L272.559 69.6902L250.811 54.5299H277.693L286 30Z" fill="#EAEAEA"/>
<path d="M404 30L412.307 54.5299H439.189L417.441 69.6902L425.748 94.2201L404 79.0598L382.252 94.2201L390.559 69.6902L368.811 54.5299H395.693L404 30Z" fill="#EAEAEA"/>
<path d="M522 30L530.307 54.5299H557.189L535.441 69.6902L543.748 94.2201L522 79.0598L500.252 94.2201L508.559 69.6902L486.811 54.5299H513.693L522 30Z" fill="#EAEAEA"/>
</svg>
